<?xml version="1.0" encoding="utf-8"?>
<!-- Generator: Adobe Illustrator 19.0.0, SVG Export Plug-In . SVG Version: 6.00 Build 0)  -->
<svg version="1.1" xmlns="http://www.w3.org/2000/svg" xmlns:xlink="http://www.w3.org/1999/xlink" x="0px" y="0px"
	 viewBox="0 0 612 792" enable-background="new 0 0 612 792" xml:space="preserve">
<g id="Layer_1">
	<path id="XMLID_55_" fill="#262626" d="M96,0v412.6c0-0.4,0.3-0.7,0.7-0.7h12.6c0.4,0,0.7,0.3,0.7,0.7v0.5c0,0.4-0.3,0.7-0.7,0.7
		H96.6c-0.4,0-0.7-0.3-0.7-0.7v99.5h454.6V0H96z"/>
	<polygon id="XMLID_4_" stroke="#000000" stroke-miterlimit="10" points="483.5,589.6 477.2,589.6 473,536.5 487.7,536.5 	"/>
	<path id="XMLID_3_" stroke="#000000" stroke-miterlimit="10" d="M486,533.9h-11.3c-1.1,0-2-0.9-2-2.1v-17.1c0-1.1,0.9-2.1,2-2.1
		h11.5c0.1,0,0.7,0,1.2,0.5c0.6,0.6,0.5,1.4,0.5,1.5v17.1C487.9,532.9,487.1,533.9,486,533.9z"/>
	<polygon id="XMLID_5_" stroke="#000000" stroke-miterlimit="10" points="484,589.6 476.6,589.6 474.9,560.9 485.7,561.2 	"/>
	<rect id="XMLID_6_" x="476.9" y="585.7" stroke="#000000" stroke-width="0.5" stroke-miterlimit="10" width="6.9" height="0.8"/>
	<rect id="XMLID_8_" x="476.6" y="581.4" stroke="#000000" stroke-width="0.5" stroke-miterlimit="10" width="7.9" height="0.8"/>
	<rect id="XMLID_9_" x="476.4" y="577" stroke="#000000" stroke-width="0.5" stroke-miterlimit="10" width="7.9" height="0.8"/>
	<rect id="XMLID_10_" x="475.6" y="572.6" stroke="#000000" stroke-width="0.5" stroke-miterlimit="10" width="9.4" height="0.8"/>
	<rect id="XMLID_11_" x="476" y="568.2" stroke="#000000" stroke-width="0.5" stroke-miterlimit="10" width="9.2" height="0.8"/>
	<rect id="XMLID_12_" x="475.8" y="563.7" stroke="#000000" stroke-width="0.5" stroke-miterlimit="10" width="10" height="0.8"/>
	<polygon id="XMLID_22_" fill="#3D55A5" stroke="#000000" stroke-miterlimit="10" points="379.6,589.6 373.3,589.6 369.1,536.5 
		383.8,536.5 	"/>
	<path id="XMLID_21_" fill="#3D55A5" stroke="#000000" stroke-miterlimit="10" d="M382.1,533.9h-11.3c-1.1,0-2-0.9-2-2.1v-17.1
		c0-1.1,0.9-2.1,2-2.1h11.5c0.1,0,0.7,0,1.2,0.5c0.6,0.6,0.5,1.4,0.5,1.5v17.1C384,532.9,383.2,533.9,382.1,533.9z"/>
	<polygon id="XMLID_20_" fill="#3D55A5" stroke="#000000" stroke-miterlimit="10" points="380.1,589.6 372.7,589.6 371,560.9 
		381.9,561.2 	"/>
	
		<rect id="XMLID_19_" x="373" y="585.7" fill="#3D55A5" stroke="#000000" stroke-width="0.5" stroke-miterlimit="10" width="6.9" height="0.8"/>
	
		<rect id="XMLID_18_" x="372.7" y="581.4" fill="#3D55A5" stroke="#000000" stroke-width="0.5" stroke-miterlimit="10" width="7.9" height="0.8"/>
	
		<rect id="XMLID_17_" x="372.5" y="577" fill="#3D55A5" stroke="#000000" stroke-width="0.5" stroke-miterlimit="10" width="7.9" height="0.8"/>
	
		<rect id="XMLID_16_" x="371.7" y="572.6" fill="#3D55A5" stroke="#000000" stroke-width="0.5" stroke-miterlimit="10" width="9.4" height="0.8"/>
	
		<rect id="XMLID_15_" x="372.1" y="568.2" fill="#3D55A5" stroke="#000000" stroke-width="0.5" stroke-miterlimit="10" width="9.2" height="0.8"/>
	
		<rect id="XMLID_14_" x="371.9" y="563.7" fill="#3D55A5" stroke="#000000" stroke-width="0.5" stroke-miterlimit="10" width="10" height="0.8"/>
	<polygon id="XMLID_32_" fill="#D61F26" stroke="#000000" stroke-miterlimit="10" points="275.5,589.6 269.2,589.6 265,536.5 
		279.7,536.5 	"/>
	<path id="XMLID_31_" fill="#D61F26" stroke="#000000" stroke-miterlimit="10" d="M278,533.9h-11.3c-1.1,0-2-0.9-2-2.1v-17.1
		c0-1.1,0.9-2.1,2-2.1h11.5c0.1,0,0.7,0,1.2,0.5c0.6,0.6,0.5,1.4,0.5,1.5v17.1C280,532.9,279.1,533.9,278,533.9z"/>
	<polygon id="XMLID_30_" fill="#D61F26" stroke="#000000" stroke-miterlimit="10" points="276,589.6 268.7,589.6 266.9,560.9 
		277.8,561.2 	"/>
	<rect id="XMLID_29_" x="268.9" y="585.7" fill="#D61F26" stroke="#000000" stroke-miterlimit="10" width="6.9" height="0.8"/>
	<rect id="XMLID_28_" x="268.6" y="581.4" fill="#D61F26" stroke="#000000" stroke-miterlimit="10" width="7.9" height="0.8"/>
	<rect id="XMLID_27_" x="268.4" y="577" fill="#D61F26" stroke="#000000" stroke-miterlimit="10" width="7.9" height="0.8"/>
	<rect id="XMLID_26_" x="267.6" y="572.6" fill="#D61F26" stroke="#000000" stroke-miterlimit="10" width="9.4" height="0.8"/>
	<rect id="XMLID_25_" x="268" y="568.2" fill="#D61F26" stroke="#000000" stroke-miterlimit="10" width="9.2" height="0.8"/>
	<rect id="XMLID_24_" x="267.8" y="563.7" fill="#D61F26" stroke="#000000" stroke-miterlimit="10" width="10" height="0.8"/>
	<path id="XMLID_48_" fill="#414042" stroke="#000000" stroke-width="0.5" stroke-miterlimit="10" d="M167.1,512.6h-0.6
		c-0.3,0-0.6-0.3-0.6-0.6v-12.8c0-0.3,0.3-0.6,0.6-0.6h0.6c0.3,0,0.6,0.3,0.6,0.6V512C167.7,512.3,167.4,512.6,167.1,512.6z"/>
	<path id="XMLID_54_" fill="#414042" stroke="#000000" stroke-width="0.5" stroke-miterlimit="10" d="M167.1,512.6h-0.6
		c-0.3,0-0.6-0.3-0.6-0.6v-12.8c0-0.3,0.3-0.6,0.6-0.6h0.6c0.3,0,0.6,0.3,0.6,0.6V512C167.7,512.3,167.4,512.6,167.1,512.6z"/>
	<path id="XMLID_2_" fill="#414042" stroke="#000000" stroke-width="0.5" stroke-miterlimit="10" d="M167.1,512.6h-0.6
		c-0.3,0-0.6-0.3-0.6-0.6v-12.8c0-0.3,0.3-0.6,0.6-0.6h0.6c0.3,0,0.6,0.3,0.6,0.6V512C167.7,512.3,167.4,512.6,167.1,512.6z"/>
	<path id="XMLID_46_" fill="#414042" stroke="#000000" stroke-width="0.5" stroke-miterlimit="10" d="M272.6,512.6H272
		c-0.3,0-0.6-0.3-0.6-0.6v-12.8c0-0.3,0.3-0.6,0.6-0.6h0.6c0.3,0,0.6,0.3,0.6,0.6V512C273.2,512.3,273,512.6,272.6,512.6z"/>
	<path id="XMLID_47_" fill="#414042" stroke="#000000" stroke-width="0.5" stroke-miterlimit="10" d="M376.7,512.6h-0.6
		c-0.3,0-0.6-0.3-0.6-0.6v-13.5c0-0.3,0.3-0.6,0.6-0.6h0.6c0.3,0,0.6,0.3,0.6,0.6V512C377.3,512.3,377,512.6,376.7,512.6z"/>
	<path id="XMLID_45_" fill="#414042" stroke="#000000" stroke-width="0.5" stroke-miterlimit="10" d="M480.6,512.6H480
		c-0.3,0-0.6-0.3-0.6-0.6v-13.5c0-0.3,0.3-0.6,0.6-0.6h0.6c0.3,0,0.6,0.3,0.6,0.6V512C481.2,512.3,480.9,512.6,480.6,512.6z"/>
	<polygon id="XMLID_42_" fill="#FCD9D4" stroke="#000000" stroke-miterlimit="10" points="170,589.6 163.7,589.6 159.4,536.5 
		174.2,536.5 	"/>
	<path id="XMLID_41_" fill="#FCD9D4" stroke="#000000" stroke-miterlimit="10" d="M172.4,533.9h-11.3c-1.1,0-2-0.9-2-2.1v-17.1
		c0-1.1,0.9-2.1,2-2.1h11.5c0.1,0,0.7,0,1.2,0.5c0.6,0.6,0.5,1.4,0.5,1.5v17.1C174.4,532.9,173.5,533.9,172.4,533.9z"/>
	<polygon id="XMLID_40_" fill="#FCD9D4" stroke="#000000" stroke-miterlimit="10" points="170.5,589.6 163.1,589.6 161.4,560.9 
		172.2,561.2 	"/>
	
		<rect id="XMLID_39_" x="163.4" y="585.7" fill="#FCD9D4" stroke="#000000" stroke-width="0.5" stroke-miterlimit="10" width="6.9" height="0.8"/>
	
		<rect id="XMLID_38_" x="163" y="581.4" fill="#FCD9D4" stroke="#000000" stroke-width="0.5" stroke-miterlimit="10" width="7.9" height="0.8"/>
	
		<rect id="XMLID_37_" x="162.9" y="577" fill="#FCD9D4" stroke="#000000" stroke-width="0.5" stroke-miterlimit="10" width="7.9" height="0.8"/>
	
		<rect id="XMLID_36_" x="162.1" y="572.6" fill="#FCD9D4" stroke="#000000" stroke-width="0.5" stroke-miterlimit="10" width="9.4" height="0.8"/>
	
		<rect id="XMLID_35_" x="162.5" y="568.2" fill="#FCD9D4" stroke="#000000" stroke-width="0.5" stroke-miterlimit="10" width="9.2" height="0.8"/>
	
		<rect id="XMLID_34_" x="162.3" y="563.7" fill="#FCD9D4" stroke="#000000" stroke-width="0.5" stroke-miterlimit="10" width="10" height="0.8"/>
	<rect id="XMLID_62_" x="117" y="22.9" fill="#C4C6C8" width="407.9" height="464.8"/>
	<path id="XMLID_13_" fill="#646567" stroke="#000000" stroke-width="0.5" stroke-miterlimit="10" d="M483.6,796h-6.9
		c3.3-29.5,3.1-53.5,2.3-70c-1.8-35.1-7.1-53.4-6.3-90.2c0.4-19.7,2.4-35.7,4-46.2c2.3,0,4.6,0,6.9,0c-2,12.7-4.2,32.1-3.5,55.7
		c0.5,18.9,2.7,32.6,3.5,38.2C486.8,706,489,741.2,483.6,796z"/>
	<path id="XMLID_64_" fill="#8D8E8F" stroke="#000000" stroke-width="0.5" stroke-miterlimit="10" d="M163,796h6.9
		c-3.3-29.5-3.1-53.5-2.3-70c1.8-35.1,7.1-53.4,6.3-90.2c-0.4-19.7-2.4-35.7-4-46.2c-2.3,0-4.6,0-6.9,0c2,12.7,4.2,32.1,3.5,55.7
		c-0.5,18.9-2.7,32.6-3.5,38.2C159.7,706,157.6,741.2,163,796z"/>
	<path id="XMLID_65_" fill="#1D274B" stroke="#000000" stroke-miterlimit="10" d="M373.5,796h6.9c-3.3-29.5-3.1-53.5-2.3-70
		c1.8-35.1,7.1-53.4,6.3-90.2c-0.4-19.7-2.4-35.7-4-46.2c-2.3,0-4.6,0-6.9,0c2,12.7,4.2,32.1,3.5,55.7c-0.5,18.9-2.7,32.6-3.5,38.2
		C370.3,706,368.1,741.2,373.5,796z"/>
	<path id="XMLID_66_" fill="#6D0000" stroke="#000000" stroke-miterlimit="10" d="M275.3,796h-6.9c3.3-29.5,3.1-53.5,2.3-70
		c-1.8-35.1-7.1-53.4-6.3-90.2c0.4-19.7,2.4-35.7,4-46.2c2.3,0,4.6,0,6.9,0c-2,12.7-4.2,32.1-3.5,55.7c0.5,18.9,2.7,32.6,3.5,38.2
		C278.5,706,280.6,741.2,275.3,796z"/>
	<rect id="XMLID_1_" x="130.8" y="22.9" fill="#ABADB0" stroke="#414042" stroke-miterlimit="10" width="380.8" height="79.6"/>
</g>
<g id="Layer_2">
	<rect id="XMLID_63_" x="335.6" y="410.7" fill="#E32726" width="181.9" height="55.9"/>
	<g id="XMLID_58_">
		<path id="XMLID_61_" fill="#C4C6C8" d="M345.6,454.6l22.3-36.9c1.4-2.4,5.1-2.4,6.5,0l22.3,36.9c1.4,2.4-0.4,5.4-3.3,5.4h-44.5
			C346,460,344.2,457,345.6,454.6z"/>
		<rect id="XMLID_60_" x="366.2" y="428.8" fill="none" width="9.9" height="27.2"/>
		
			<text id="XMLID_59_" transform="matrix(1.044 0 0 1 366.2178 450.9551)" fill="#D61F26" stroke="#BE1E2D" stroke-miterlimit="10" font-family="'HighTowerText-Reg'" font-size="31.8284px">!</text>
	</g>
	<rect id="XMLID_57_" x="405.1" y="431.7" fill="none" width="106.5" height="22.9"/>
	
		<text id="XMLID_56_" transform="matrix(0.9931 0 0 1 405.0596 447.1982)" fill="#C4C6C8" font-family="'HighTowerText-Reg'" font-size="22.288px">DANGER</text>
</g>
</svg>
