<?xml version="1.0" encoding="utf-8"?>
<!-- Generator: Adobe Illustrator 19.0.0, SVG Export Plug-In . SVG Version: 6.00 Build 0)  -->
<svg version="1.1" xmlns="http://www.w3.org/2000/svg" xmlns:xlink="http://www.w3.org/1999/xlink" x="0px" y="0px"
	 viewBox="0 0 676 792" enable-background="new 0 0 676 792" xml:space="preserve">
<g id="Layer_1">
	<path id="XMLID_55_" fill="#262626" d="M119.5,0v412.6c0-0.4,0.3-0.7,0.7-0.7h12.6c0.4,0,0.7,0.3,0.7,0.7v0.5
		c0,0.4-0.3,0.7-0.7,0.7h-12.6c-0.4,0-0.7-0.3-0.7-0.7v99.5h454.6V0H119.5z"/>
	<polygon id="XMLID_4_" stroke="#000000" stroke-miterlimit="10" points="507.1,589.6 500.7,589.6 496.5,536.5 511.3,536.5 	"/>
	<path id="XMLID_3_" stroke="#000000" stroke-miterlimit="10" d="M509.5,533.9h-11.3c-1.1,0-2-0.9-2-2.1v-17.1c0-1.1,0.9-2.1,2-2.1
		h11.5c0.1,0,0.7,0,1.2,0.5c0.6,0.6,0.5,1.4,0.5,1.5v17.1C511.5,532.9,510.6,533.9,509.5,533.9z"/>
	<polygon id="XMLID_5_" stroke="#000000" stroke-miterlimit="10" points="507.6,589.6 500.2,589.6 498.4,560.9 509.3,561.2 	"/>
	<rect id="XMLID_6_" x="500.5" y="585.7" stroke="#000000" stroke-width="0.5" stroke-miterlimit="10" width="6.9" height="0.8"/>
	<rect id="XMLID_8_" x="500.1" y="581.4" stroke="#000000" stroke-width="0.5" stroke-miterlimit="10" width="7.9" height="0.8"/>
	<rect id="XMLID_9_" x="499.9" y="577" stroke="#000000" stroke-width="0.5" stroke-miterlimit="10" width="7.9" height="0.8"/>
	<rect id="XMLID_10_" x="499.2" y="572.6" stroke="#000000" stroke-width="0.5" stroke-miterlimit="10" width="9.4" height="0.8"/>
	<rect id="XMLID_11_" x="499.5" y="568.2" stroke="#000000" stroke-width="0.5" stroke-miterlimit="10" width="9.2" height="0.8"/>
	<rect id="XMLID_12_" x="499.3" y="563.7" stroke="#000000" stroke-width="0.5" stroke-miterlimit="10" width="10" height="0.8"/>
	<polygon id="XMLID_22_" fill="#3D55A5" stroke="#000000" stroke-miterlimit="10" points="403.2,589.6 396.8,589.6 392.6,536.5 
		407.4,536.5 	"/>
	<path id="XMLID_21_" fill="#3D55A5" stroke="#000000" stroke-miterlimit="10" d="M405.6,533.9h-11.3c-1.1,0-2-0.9-2-2.1v-17.1
		c0-1.1,0.9-2.1,2-2.1h11.5c0.1,0,0.7,0,1.2,0.5c0.6,0.6,0.5,1.4,0.5,1.5v17.1C407.6,532.9,406.7,533.9,405.6,533.9z"/>
	<polygon id="XMLID_20_" fill="#3D55A5" stroke="#000000" stroke-miterlimit="10" points="403.7,589.6 396.3,589.6 394.5,560.9 
		405.4,561.2 	"/>
	
		<rect id="XMLID_19_" x="396.6" y="585.7" fill="#3D55A5" stroke="#000000" stroke-width="0.5" stroke-miterlimit="10" width="6.9" height="0.8"/>
	
		<rect id="XMLID_18_" x="396.2" y="581.4" fill="#3D55A5" stroke="#000000" stroke-width="0.5" stroke-miterlimit="10" width="7.9" height="0.8"/>
	
		<rect id="XMLID_17_" x="396" y="577" fill="#3D55A5" stroke="#000000" stroke-width="0.5" stroke-miterlimit="10" width="7.9" height="0.8"/>
	
		<rect id="XMLID_16_" x="395.3" y="572.6" fill="#3D55A5" stroke="#000000" stroke-width="0.5" stroke-miterlimit="10" width="9.4" height="0.8"/>
	
		<rect id="XMLID_15_" x="395.6" y="568.2" fill="#3D55A5" stroke="#000000" stroke-width="0.5" stroke-miterlimit="10" width="9.2" height="0.8"/>
	
		<rect id="XMLID_14_" x="395.5" y="563.7" fill="#3D55A5" stroke="#000000" stroke-width="0.5" stroke-miterlimit="10" width="10" height="0.8"/>
	<polygon id="XMLID_32_" fill="#D61F26" stroke="#000000" stroke-miterlimit="10" points="299.1,589.6 292.7,589.6 288.5,536.5 
		303.3,536.5 	"/>
	<path id="XMLID_31_" fill="#D61F26" stroke="#000000" stroke-miterlimit="10" d="M301.5,533.9h-11.3c-1.1,0-2-0.9-2-2.1v-17.1
		c0-1.1,0.9-2.1,2-2.1h11.5c0.1,0,0.7,0,1.2,0.5c0.6,0.6,0.5,1.4,0.5,1.5v17.1C303.5,532.9,302.6,533.9,301.5,533.9z"/>
	<polygon id="XMLID_30_" fill="#D61F26" stroke="#000000" stroke-miterlimit="10" points="299.6,589.6 292.2,589.6 290.4,560.9 
		301.3,561.2 	"/>
	<rect id="XMLID_29_" x="292.5" y="585.7" fill="#D61F26" stroke="#000000" stroke-miterlimit="10" width="6.9" height="0.8"/>
	<rect id="XMLID_28_" x="292.1" y="581.4" fill="#D61F26" stroke="#000000" stroke-miterlimit="10" width="7.9" height="0.8"/>
	<rect id="XMLID_27_" x="291.9" y="577" fill="#D61F26" stroke="#000000" stroke-miterlimit="10" width="7.9" height="0.8"/>
	<rect id="XMLID_26_" x="291.2" y="572.6" fill="#D61F26" stroke="#000000" stroke-miterlimit="10" width="9.4" height="0.8"/>
	<rect id="XMLID_25_" x="291.6" y="568.2" fill="#D61F26" stroke="#000000" stroke-miterlimit="10" width="9.2" height="0.8"/>
	<rect id="XMLID_24_" x="291.4" y="563.7" fill="#D61F26" stroke="#000000" stroke-miterlimit="10" width="10" height="0.8"/>
	<path id="XMLID_48_" fill="#414042" stroke="#000000" stroke-width="0.5" stroke-miterlimit="10" d="M190.7,512.6h-0.6
		c-0.3,0-0.6-0.3-0.6-0.6v-12.8c0-0.3,0.3-0.6,0.6-0.6h0.6c0.3,0,0.6,0.3,0.6,0.6V512C191.3,512.3,191,512.6,190.7,512.6z"/>
	<path id="XMLID_54_" fill="#414042" stroke="#000000" stroke-width="0.5" stroke-miterlimit="10" d="M190.7,512.6h-0.6
		c-0.3,0-0.6-0.3-0.6-0.6v-12.8c0-0.3,0.3-0.6,0.6-0.6h0.6c0.3,0,0.6,0.3,0.6,0.6V512C191.3,512.3,191,512.6,190.7,512.6z"/>
	<path id="XMLID_2_" fill="#414042" stroke="#000000" stroke-width="0.5" stroke-miterlimit="10" d="M190.7,512.6h-0.6
		c-0.3,0-0.6-0.3-0.6-0.6v-12.8c0-0.3,0.3-0.6,0.6-0.6h0.6c0.3,0,0.6,0.3,0.6,0.6V512C191.3,512.3,191,512.6,190.7,512.6z"/>
	<path id="XMLID_46_" fill="#414042" stroke="#000000" stroke-width="0.5" stroke-miterlimit="10" d="M296.2,512.6h-0.6
		c-0.3,0-0.6-0.3-0.6-0.6v-12.8c0-0.3,0.3-0.6,0.6-0.6h0.6c0.3,0,0.6,0.3,0.6,0.6V512C296.8,512.3,296.5,512.6,296.2,512.6z"/>
	<path id="XMLID_47_" fill="#414042" stroke="#000000" stroke-width="0.5" stroke-miterlimit="10" d="M400.3,512.6h-0.6
		c-0.3,0-0.6-0.3-0.6-0.6v-13.5c0-0.3,0.3-0.6,0.6-0.6h0.6c0.3,0,0.6,0.3,0.6,0.6V512C400.9,512.3,400.6,512.6,400.3,512.6z"/>
	<path id="XMLID_45_" fill="#414042" stroke="#000000" stroke-width="0.5" stroke-miterlimit="10" d="M504.2,512.6h-0.6
		c-0.3,0-0.6-0.3-0.6-0.6v-13.5c0-0.3,0.3-0.6,0.6-0.6h0.6c0.3,0,0.6,0.3,0.6,0.6V512C504.8,512.3,504.5,512.6,504.2,512.6z"/>
	<polygon id="XMLID_42_" fill="#FCD9D4" stroke="#000000" stroke-miterlimit="10" points="193.5,589.6 187.2,589.6 183,536.5 
		197.8,536.5 	"/>
	<path id="XMLID_41_" fill="#FCD9D4" stroke="#000000" stroke-miterlimit="10" d="M196,533.9h-11.3c-1.1,0-2-0.9-2-2.1v-17.1
		c0-1.1,0.9-2.1,2-2.1h11.5c0.1,0,0.7,0,1.2,0.5c0.6,0.6,0.5,1.4,0.5,1.5v17.1C198,532.9,197.1,533.9,196,533.9z"/>
	<polygon id="XMLID_40_" fill="#FCD9D4" stroke="#000000" stroke-miterlimit="10" points="194.1,589.6 186.7,589.6 184.9,560.9 
		195.8,561.2 	"/>
	
		<rect id="XMLID_39_" x="187" y="585.7" fill="#FCD9D4" stroke="#000000" stroke-width="0.5" stroke-miterlimit="10" width="6.9" height="0.8"/>
	
		<rect id="XMLID_38_" x="186.6" y="581.4" fill="#FCD9D4" stroke="#000000" stroke-width="0.5" stroke-miterlimit="10" width="7.9" height="0.8"/>
	
		<rect id="XMLID_37_" x="186.4" y="577" fill="#FCD9D4" stroke="#000000" stroke-width="0.5" stroke-miterlimit="10" width="7.9" height="0.8"/>
	
		<rect id="XMLID_36_" x="185.7" y="572.6" fill="#FCD9D4" stroke="#000000" stroke-width="0.5" stroke-miterlimit="10" width="9.4" height="0.8"/>
	
		<rect id="XMLID_35_" x="186" y="568.2" fill="#FCD9D4" stroke="#000000" stroke-width="0.5" stroke-miterlimit="10" width="9.2" height="0.8"/>
	
		<rect id="XMLID_34_" x="185.8" y="563.7" fill="#FCD9D4" stroke="#000000" stroke-width="0.5" stroke-miterlimit="10" width="10" height="0.8"/>
	<linearGradient id="XMLID_43_" gradientUnits="userSpaceOnUse" x1="140.5273" y1="255.3525" x2="548.4028" y2="255.3525">
		<stop  offset="0" style="stop-color:#FFFFFF"/>
		<stop  offset="1" style="stop-color:#333232"/>
	</linearGradient>
	<rect id="XMLID_62_" x="140.5" y="22.9" fill="url(#XMLID_43_)" width="407.9" height="464.8"/>
	<path id="XMLID_13_" fill="#646567" stroke="#000000" stroke-width="0.5" stroke-miterlimit="10" d="M507.2,796h-6.9
		c3.3-29.5,3.1-53.5,2.3-70c-1.8-35.1-7.1-53.4-6.3-90.2c0.4-19.7,2.4-35.7,4-46.2c2.3,0,4.6,0,6.9,0c-2,12.7-4.2,32.1-3.5,55.7
		c0.5,18.9,2.7,32.6,3.5,38.2C510.4,706,512.5,741.2,507.2,796z"/>
	<path id="XMLID_57_" fill="#646567" stroke="#000000" stroke-width="0.5" stroke-miterlimit="10" d="M186.8,796h6.9
		c-3.3-29.5-3.1-53.5-2.3-70c1.8-35.1,7.1-53.4,6.3-90.2c-0.4-19.7-2.4-35.7-4-46.2c-2.3,0-4.6,0-6.9,0c2,12.7,4.2,32.1,3.5,55.7
		c-0.5,18.9-2.7,32.6-3.5,38.2C183.6,706,181.4,741.2,186.8,796z"/>
	<path id="XMLID_65_" fill="#1D274B" stroke="#000000" stroke-miterlimit="10" d="M397,796h6.9c-3.3-29.5-3.1-53.5-2.3-70
		c1.8-35.1,7.1-53.4,6.3-90.2c-0.4-19.7-2.4-35.7-4-46.2c-2.3,0-4.6,0-6.9,0c2,12.7,4.2,32.1,3.5,55.7c-0.5,18.9-2.7,32.6-3.5,38.2
		C393.8,706,391.7,741.2,397,796z"/>
	<path id="XMLID_66_" fill="#6D0000" stroke="#000000" stroke-miterlimit="10" d="M298.8,796H292c3.3-29.5,3.1-53.5,2.3-70
		c-1.8-35.1-7.1-53.4-6.3-90.2c0.4-19.7,2.4-35.7,4-46.2c2.3,0,4.6,0,6.9,0c-2,12.7-4.2,32.1-3.5,55.7c0.5,18.9,2.7,32.6,3.5,38.2
		C302,706,304.2,741.2,298.8,796z"/>
	<rect id="XMLID_1_" x="154.4" y="22.9" fill="#7E1D17" stroke="#414042" stroke-miterlimit="10" width="380.8" height="79.6"/>
</g>
<g id="Layer_2">
	<rect id="XMLID_91_" x="359.1" y="410.7" fill="#7E1D17" stroke="#414042" stroke-miterlimit="10" width="181.9" height="55.9"/>
	<g id="XMLID_87_">
		<path id="XMLID_90_" fill="#C4C6C8" d="M369.2,454.6l22.3-36.9c1.4-2.4,5.1-2.4,6.5,0l22.3,36.9c1.4,2.4-0.4,5.4-3.3,5.4h-44.5
			C369.6,460,367.8,457,369.2,454.6z"/>
		<rect id="XMLID_89_" x="389.8" y="428.8" fill="none" width="9.9" height="27.2"/>
		
			<text id="XMLID_88_" transform="matrix(1.044 0 0 1 389.779 450.9551)" fill="#D61F26" stroke="#BE1E2D" stroke-miterlimit="10" font-family="'HighTowerText-Reg'" font-size="31.8284px">!</text>
	</g>
	<rect id="XMLID_86_" x="428.6" y="431.7" fill="none" width="106.5" height="22.9"/>
	
		<text id="XMLID_85_" transform="matrix(0.9931 0 0 1 428.6208 447.1982)" fill="#C4C6C8" font-family="'HighTowerText-Reg'" font-size="22.288px">DANGER</text>
</g>
</svg>
