<?xml version="1.0" encoding="utf-8"?>
<!-- Generator: Adobe Illustrator 19.0.0, SVG Export Plug-In . SVG Version: 6.00 Build 0)  -->
<svg version="1.1" id="Layer_1" xmlns="http://www.w3.org/2000/svg" xmlns:xlink="http://www.w3.org/1999/xlink" x="0px" y="0px"
	 viewBox="0 0 2000 200" enable-background="new 0 0 2000 200" xml:space="preserve">
<path id="XMLID_53_" fill="#414042" d="M1952.3,109.3v-1.8c0-0.3,0.3-0.6,0.6-0.6h22.1c0.3,0,0.6,0.3,0.6,0.6v1.8
	c0,0.3-0.3,0.6-0.6,0.6h-22.1C1952.6,109.9,1952.3,109.6,1952.3,109.3z"/>
<polygon id="XMLID_52_" fill="#40B549" stroke="#000000" stroke-miterlimit="10" points="1824.6,113.7 1824.6,103.1 1912.7,96 
	1912.7,120.8 "/>
<path id="XMLID_51_" fill="#40B549" stroke="#000000" stroke-miterlimit="10" d="M1917.1,117.9v-19c0-1.9,1.5-3.4,3.4-3.4h28.3
	c1.9,0,3.4,1.5,3.4,3.4v19.4c0,0.2,0,1.2-0.9,2.1c-1,1-2.3,0.9-2.5,0.9h-28.4C1918.6,121.2,1917.1,119.7,1917.1,117.9z"/>
<polygon id="XMLID_50_" fill="#40B549" stroke="#000000" stroke-miterlimit="10" points="1824.6,114.6 1824.6,102.2 1872.2,99.2 
	1871.7,117.5 "/>
<rect id="XMLID_49_" x="1859" y="102.6" fill="#40B549" stroke="#000000" stroke-width="0.5" stroke-miterlimit="10" width="1.3" height="11.5"/>
<rect id="XMLID_44_" x="1836.8" y="102.1" fill="#40B549" stroke="#000000" stroke-width="0.5" stroke-miterlimit="10" width="1.3" height="13.4"/>
<rect id="XMLID_43_" x="1844.1" y="101.7" fill="#40B549" stroke="#000000" stroke-width="0.5" stroke-miterlimit="10" width="1.3" height="13.4"/>
<rect id="XMLID_33_" x="1851.5" y="100.5" fill="#40B549" stroke="#000000" stroke-width="0.5" stroke-miterlimit="10" width="1.3" height="15.9"/>
<rect id="XMLID_23_" x="1858.8" y="101.1" fill="#40B549" stroke="#000000" stroke-width="0.5" stroke-miterlimit="10" width="1.3" height="15.5"/>
<rect id="XMLID_7_" x="1866.2" y="100.8" fill="#40B549" stroke="#000000" stroke-width="0.5" stroke-miterlimit="10" width="1.3" height="16.8"/>
<path id="XMLID_67_" fill="#1C371A" stroke="#000000" stroke-width="0.5" stroke-miterlimit="10" d="M-17.9,99.2l0,11.5
	c263.4-5,477.6-4.2,625.2-2.5c313.5,3.7,476.7,13.1,805.2,12.5c175.5-0.3,318.8-3.4,412.1-5.8c0-3.8,0-7.7,0-11.5
	c-113.5,3.1-286.4,6.4-497.3,4.8c-168.5-1.3-290.7-5.2-341-6.7C785.5,95.6,471.3,91.2-17.9,99.2z"/>
</svg>
