<?xml version="1.0" encoding="utf-8"?>
<!-- Generator: Adobe Illustrator 19.0.0, SVG Export Plug-In . SVG Version: 6.00 Build 0)  -->
<svg version="1.1" xmlns="http://www.w3.org/2000/svg" xmlns:xlink="http://www.w3.org/1999/xlink" x="0px" y="0px"
	 viewBox="0 0 676 792" enable-background="new 0 0 676 792" xml:space="preserve">
<g id="Layer_1">
	<path id="XMLID_64_" fill="#1C371A" stroke="#000000" stroke-width="0.5" stroke-miterlimit="10" d="M25.3,796h-6.9
		c3.3-54.7,3.1-99.2,2.3-129.8c-1.8-65.1-7.1-99-6.3-167.2c0.2-21,2-41.9,2.4-62.9c0-2.4,0.1-8.4,3.7-14.4
		c3.6-6.1,9.2-9.2,12.5-10.7c0.2,1.5,0.3,3.1,0.5,4.6c-3,1.8-6.9,4.8-9,9.7c-2.2,5.3-1.2,10.5-0.9,12.2c2.4,13.3-2.7,18.3-1.8,79.2
		c0.5,35,2.7,60.3,3.5,70.8C28.5,629.2,30.7,694.4,25.3,796z"/>
	<path id="XMLID_72_" fill="#414042" d="M101.3,413.3l0-0.4c0-0.2,0.2-0.4,0.4-0.4l11.6-0.1c0.2,0,0.4,0.2,0.4,0.4l0,0.4
		c0,0.2-0.2,0.4-0.4,0.4l-11.6,0.1C101.5,413.7,101.3,413.5,101.3,413.3z"/>
	<polygon id="XMLID_71_" fill="#40B549" stroke="#000000" stroke-miterlimit="10" points="33,415.6 33,411.2 80.1,408.1 80.1,418.3 
			"/>
	<path id="XMLID_53_" fill="#40B549" stroke="#000000" stroke-miterlimit="10" d="M82.5,417.1l0-7.9c0-0.8,0.8-1.4,1.8-1.4l15.2-0.1
		c1,0,1.8,0.6,1.9,1.4l0,8c0,0.1,0,0.5-0.5,0.9c-0.5,0.4-1.2,0.4-1.3,0.4l-15.2,0.1C83.3,418.5,82.5,417.9,82.5,417.1z"/>
	<polygon id="XMLID_52_" fill="#40B549" stroke="#000000" stroke-miterlimit="10" points="33,416 33,410.8 58.4,409.5 58.2,417.1 	
		"/>
	
		<rect id="XMLID_51_" x="49.3" y="413" transform="matrix(4.366911e-003 1 -1 4.366911e-003 464.7956 359.7993)" fill="#40B549" stroke="#000000" stroke-width="0.5" stroke-miterlimit="10" width="4.8" height="0.7"/>
	
		<rect id="XMLID_50_" x="37.1" y="413.1" transform="matrix(4.366911e-003 1 -1 4.366911e-003 453.1789 371.8369)" fill="#40B549" stroke="#000000" stroke-width="0.5" stroke-miterlimit="10" width="5.5" height="0.7"/>
	
		<rect id="XMLID_49_" x="41" y="413" transform="matrix(4.366911e-003 1 -1 4.366911e-003 456.9359 367.7625)" fill="#40B549" stroke="#000000" stroke-width="0.5" stroke-miterlimit="10" width="5.5" height="0.7"/>
	
		<rect id="XMLID_44_" x="44.4" y="413" transform="matrix(4.366911e-003 1 -1 4.366911e-003 460.8303 363.8237)" fill="#40B549" stroke="#000000" stroke-width="0.5" stroke-miterlimit="10" width="6.6" height="0.7"/>
	
		<rect id="XMLID_43_" x="48.4" y="413.1" transform="matrix(4.366911e-003 1 -1 4.366911e-003 464.8961 360.0542)" fill="#40B549" stroke="#000000" stroke-width="0.5" stroke-miterlimit="10" width="6.4" height="0.7"/>
	
		<rect id="XMLID_33_" x="52.1" y="413.2" transform="matrix(4.366911e-003 1 -1 4.366911e-003 468.914 356.2373)" fill="#40B549" stroke="#000000" stroke-width="0.5" stroke-miterlimit="10" width="6.9" height="0.7"/>
</g>
<g id="Layer_2">
</g>
</svg>
